<svg width="335" height="286" viewBox="0 0 370 302" fill="none" xmlns="http://www.w3.org/2000/svg">
<path d="M264.3 155V46.5L178.746 89V197.5L264.3 155Z" fill="#0582D2"/>
<path d="M172.7 89V197.5L87.1455 155V46.5L172.7 89Z" fill="#184473"/>
<path d="M245.5 48.2L261.054 40.5L175.5 0V15.5L245.5 48.2Z" fill="#03B6D2"/>
<path d="M175.5 0V15.5L105.5 48.2L90 40.5L175.5 0Z" fill="#03B6D2"/>
<path d="M105.5 48.2L175.5 15.5L245.5 48.2L175.5 83L105.5 48.2Z" fill="white"/>
<g filter="url(#filter0_d_23_103)">
<path d="M22.7132 220.294L18.5175 272.245L2.42096 273.085L2.42096 221.362L22.7132 220.294ZM62.7256 220.37L60.5896 236.467C59.8522 236.263 59.1147 236.124 58.3773 236.047C57.6399 235.971 56.9024 235.933 56.165 235.933C54.2832 235.933 52.4905 236.187 50.7868 236.696C49.083 237.179 47.57 237.929 46.2477 238.946C44.9508 239.963 43.9082 241.235 43.1199 242.761C42.3571 244.286 41.9756 246.079 41.9756 248.139C41.9756 249.461 42.1791 250.605 42.5859 251.572C43.0182 252.538 43.6158 253.339 44.3787 253.975C45.1415 254.61 46.0443 255.081 47.0869 255.386C48.1294 255.691 49.2737 255.844 50.5198 255.844C51.4606 255.844 52.4396 255.742 53.4568 255.539C54.474 255.335 55.4784 255.068 56.4701 254.738C57.4619 254.407 58.4282 254.026 59.369 253.593C60.3099 253.161 61.1745 252.716 61.9628 252.258L60.437 270.186C59.4453 270.694 58.3646 271.152 57.1949 271.559C56.0506 271.94 54.8681 272.284 53.6475 272.589C52.4269 272.868 51.2063 273.085 49.9858 273.237C48.7652 273.39 47.5954 273.466 46.4766 273.466C43.2471 273.466 40.2338 272.868 37.4366 271.673C34.6394 270.478 32.2109 268.838 30.1512 266.753C28.0915 264.668 26.464 262.214 25.2688 259.391C24.0991 256.543 23.5143 253.479 23.5143 250.199C23.5143 245.85 24.1373 241.756 25.3833 237.916C26.6293 234.051 28.4602 230.669 30.8759 227.77C33.2917 224.871 36.2796 222.583 39.8396 220.904C43.4251 219.226 47.5446 218.387 52.1981 218.387C53.9527 218.387 55.7454 218.527 57.5763 218.807C59.4326 219.086 61.1491 219.608 62.7256 220.37ZM101.25 218.997C101.098 221.388 100.958 223.752 100.831 226.092C100.704 228.431 100.538 230.796 100.335 233.187L84.1622 234.026L83.7808 238.832L95.1475 238.832L94.3084 250.656L82.8654 251.038L82.4839 256.607L91.9435 256.607L98.6567 256.607C98.5041 259.404 98.3389 262.188 98.1608 264.96C98.0083 267.706 97.8684 270.465 97.7413 273.237L64.8617 274L66.0823 218.997L101.25 218.997ZM146.984 260.421C146.984 262.532 146.59 264.35 145.802 265.875C145.039 267.401 144.009 268.698 142.712 269.766C141.415 270.834 139.915 271.711 138.211 272.398C136.533 273.059 134.778 273.58 132.948 273.962C131.117 274.343 129.273 274.598 127.417 274.725C125.586 274.852 123.869 274.915 122.267 274.915C120.691 274.915 119.051 274.852 117.347 274.725C115.669 274.623 113.99 274.432 112.312 274.153C110.634 273.873 108.981 273.504 107.353 273.046C105.726 272.563 104.188 271.966 102.738 271.254L102.662 222.125C104.086 221.54 105.599 221.019 107.201 220.561C108.803 220.078 110.43 219.684 112.083 219.379C113.761 219.048 115.427 218.807 117.08 218.654C118.733 218.476 120.335 218.387 121.886 218.387C123.691 218.387 125.51 218.501 127.341 218.73C129.197 218.959 130.977 219.341 132.681 219.875C134.384 220.409 135.974 221.108 137.449 221.972C138.923 222.812 140.208 223.854 141.301 225.1C142.42 226.346 143.284 227.796 143.895 229.449C144.53 231.101 144.848 233.009 144.848 235.17C144.848 236.594 144.645 237.929 144.238 239.175C143.831 240.421 143.246 241.54 142.483 242.532C141.721 243.523 140.792 244.375 139.699 245.087C138.606 245.774 137.372 246.282 135.999 246.613C137.652 247.045 139.152 247.681 140.5 248.52C141.873 249.359 143.03 250.377 143.971 251.572C144.937 252.767 145.675 254.115 146.183 255.615C146.717 257.115 146.984 258.717 146.984 260.421ZM127.608 238.679C127.608 237.942 127.455 237.319 127.15 236.81C126.845 236.276 126.463 235.844 126.006 235.513C125.573 235.183 125.09 234.941 124.556 234.789C124.047 234.636 123.59 234.56 123.183 234.56C122.674 234.56 122.178 234.636 121.695 234.789C121.212 234.941 120.742 235.119 120.284 235.323L120.055 243.79C120.64 243.79 121.365 243.74 122.229 243.638C123.094 243.536 123.92 243.32 124.709 242.989C125.522 242.633 126.209 242.125 126.768 241.464C127.328 240.777 127.608 239.849 127.608 238.679ZM122.191 251.114C121.454 251.114 120.742 251.19 120.055 251.343L119.903 260.04C120.284 260.116 120.653 260.192 121.009 260.268C121.39 260.319 121.759 260.345 122.115 260.345C122.649 260.345 123.234 260.294 123.869 260.192C124.505 260.065 125.103 259.836 125.662 259.506C126.222 259.15 126.679 258.679 127.035 258.094C127.417 257.509 127.608 256.734 127.608 255.767C127.608 254.801 127.417 254.013 127.035 253.403C126.679 252.792 126.234 252.322 125.7 251.991C125.166 251.635 124.581 251.406 123.946 251.305C123.31 251.178 122.725 251.114 122.191 251.114ZM193.748 237.23C193.748 239.213 193.57 241.019 193.214 242.646C192.884 244.248 192.35 245.723 191.612 247.071C190.875 248.419 189.921 249.665 188.751 250.809C187.582 251.953 186.17 253.047 184.517 254.089L193.596 270.262L176.431 273.619L170.557 257.369L165.827 257.522L165.141 273.39L148.739 273.39C148.866 267.592 148.981 261.82 149.082 256.073C149.209 250.326 149.349 244.553 149.502 238.756C149.553 235.831 149.604 232.932 149.654 230.059C149.705 227.185 149.807 224.286 149.96 221.362C151.74 220.701 153.494 220.154 155.223 219.722C156.953 219.29 158.682 218.959 160.411 218.73C162.165 218.476 163.933 218.311 165.713 218.234C167.518 218.133 169.362 218.082 171.244 218.082C174.142 218.082 176.94 218.489 179.635 219.302C182.356 220.091 184.759 221.286 186.844 222.888C188.929 224.49 190.595 226.486 191.841 228.876C193.112 231.267 193.748 234.051 193.748 237.23ZM176.66 238.45C176.66 237.382 176.507 236.403 176.202 235.513C175.922 234.623 175.49 233.86 174.905 233.225C174.346 232.564 173.634 232.055 172.769 231.699C171.93 231.318 170.938 231.127 169.794 231.127C169.286 231.127 168.79 231.165 168.307 231.241C167.823 231.292 167.353 231.381 166.895 231.508L166.285 245.698L167.2 245.698C168.294 245.698 169.4 245.558 170.519 245.278C171.663 244.998 172.68 244.566 173.57 243.981C174.486 243.396 175.223 242.646 175.783 241.731C176.368 240.815 176.66 239.722 176.66 238.45ZM232.54 218.997C232.387 221.388 232.248 223.752 232.12 226.092C231.993 228.431 231.828 230.796 231.625 233.187L215.452 234.026L215.07 238.832L226.437 238.832L225.598 250.656L214.155 251.038L213.773 256.607L223.233 256.607L229.946 256.607C229.794 259.404 229.628 262.188 229.45 264.96C229.298 267.706 229.158 270.465 229.031 273.237L196.151 274L197.372 218.997L232.54 218.997ZM281.974 270.72L263.055 273.161L260.766 264.54L252.069 264.54L250.162 273.161L230.709 271.254L245.89 220.447L267.098 219.379L281.974 270.72ZM259.393 252.869L256.494 239.595L253.671 252.869L259.393 252.869ZM349.95 239.632C349.95 244.944 349.278 249.776 347.934 254.128C346.59 258.416 344.574 262.128 341.886 265.264C339.262 268.4 335.966 270.8 331.998 272.464C328.094 274.128 323.55 274.96 318.366 274.96C312.989 274.96 308.317 274.128 304.349 272.464C300.381 270.736 297.085 268.336 294.461 265.264C291.837 262.128 289.885 258.384 288.605 254.032C287.325 249.68 286.685 244.848 286.685 239.536C286.685 232.496 287.837 226.352 290.141 221.104C292.445 215.856 295.933 211.76 300.605 208.816C305.341 205.872 311.293 204.4 318.462 204.4C325.309 204.4 331.069 205.872 335.742 208.816C340.414 211.696 343.934 215.792 346.302 221.104C348.734 226.352 349.95 232.528 349.95 239.632ZM295.805 239.632C295.805 245.392 296.605 250.352 298.205 254.512C299.805 258.672 302.269 261.872 305.597 264.112C308.989 266.352 313.246 267.472 318.366 267.472C323.55 267.472 327.774 266.352 331.037 264.112C334.366 261.872 336.83 258.672 338.43 254.512C340.029 250.352 340.829 245.392 340.829 239.632C340.829 230.992 339.037 224.24 335.453 219.376C331.869 214.448 326.205 211.984 318.462 211.984C313.278 211.984 308.989 213.104 305.597 215.344C302.269 217.52 299.805 220.688 298.205 224.848C296.605 228.944 295.805 233.872 295.805 239.632Z" fill="black"/>
</g>
<path d="M327.591 233.919C331.117 234.658 333.981 236.245 336.183 238.68C337.742 240.405 338.754 242.289 339.219 244.332C339.683 246.374 339.87 248.976 339.778 252.137C339.663 254.865 339.867 257.18 340.388 259.082C340.864 260.934 341.503 262.508 342.306 263.803C343.115 265.003 344.47 266.859 346.374 269.372C347.429 270.539 347.796 271.761 347.475 273.037C347.108 274.262 346.486 275.256 345.608 276.019C343.286 278.039 340.887 277.679 338.41 274.94C337.08 273.469 335.755 271.494 334.437 269.016C333.118 266.538 332.078 263.501 331.315 259.906C331.046 258.69 330.905 257.362 330.894 255.922C330.934 254.437 330.942 253.478 330.919 253.045C330.965 251.465 330.859 249.971 330.601 248.564C330.297 247.107 329.824 246.023 329.182 245.313C328.448 244.501 327.746 243.979 327.075 243.747C326.456 243.47 325.662 243.255 324.693 243.1C323.334 242.923 321.906 243.077 320.41 243.563C318.914 244.049 317.701 244.696 316.772 245.504C315.276 246.806 314.135 248.296 313.349 249.976C312.569 251.561 312.182 253.121 312.188 254.656C312.2 256.096 312.595 257.247 313.375 258.11C314.659 259.53 315.906 260.349 317.116 260.565C318.28 260.731 319.114 261.093 319.619 261.651C319.894 261.955 320.137 262.378 320.35 262.918C321.015 264.877 320.599 266.507 319.103 267.809C317.193 269.469 315.158 269.971 312.996 269.314C310.835 268.656 308.768 267.237 306.796 265.056C304.915 262.976 303.797 260.414 303.442 257.37C303.04 254.276 303.579 250.998 305.059 247.536C306.538 244.075 309.058 240.795 312.618 237.699C314.682 235.903 317.03 234.677 319.662 234.019C322.248 233.311 324.891 233.277 327.591 233.919ZM348.223 278.911C349.771 277.564 351.491 277.02 353.383 277.277C354.845 277.365 356.172 278.068 357.365 279.387C358.374 280.503 358.681 281.913 358.285 283.616C357.844 285.269 356.978 286.656 355.688 287.778C354.759 288.586 353.627 289.118 352.291 289.374C350.519 289.555 348.762 288.682 347.019 286.754C346.101 285.74 345.763 284.448 346.004 282.88C346.296 281.266 347.036 279.943 348.223 278.911Z" fill="#E61A1A"/>
<defs>
<filter id="filter0_d_23_103" x="0.420898" y="204.4" width="351.529" height="76.56" filterUnits="userSpaceOnUse" color-interpolation-filters="sRGB">
<feFlood flood-opacity="0" result="BackgroundImageFix"/>
<feColorMatrix in="SourceAlpha" type="matrix" values="0 0 0 0 0 0 0 0 0 0 0 0 0 0 0 0 0 0 127 0" result="hardAlpha"/>
<feOffset dy="4"/>
<feGaussianBlur stdDeviation="1"/>
<feComposite in2="hardAlpha" operator="out"/>
<feColorMatrix type="matrix" values="0 0 0 0 0 0 0 0 0 0 0 0 0 0 0 0 0 0 0.25 0"/>
<feBlend mode="normal" in2="BackgroundImageFix" result="effect1_dropShadow_23_103"/>
<feBlend mode="normal" in="SourceGraphic" in2="effect1_dropShadow_23_103" result="shape"/>
</filter>
</defs>
</svg>
