<svg width="193" height="40" viewBox="0 0 194 51" fill="none" xmlns="http://www.w3.org/2000/svg">
<g filter="url(#filter0_d_66_19)">
<path d="M69.0704 19.4077L69.5358 19.2434L68.605 32H63.4312L62.5552 19.2434C63.5955 19.6631 64.6996 19.873 65.8676 19.873C67.0538 19.873 68.1214 19.7179 69.0704 19.4077ZM66.0318 18.6685C65.1193 18.6685 64.3528 18.3948 63.7323 17.8473C63.1118 17.2998 62.8016 16.5881 62.8016 15.7121C62.8016 14.8178 63.1027 14.1061 63.705 13.5768C64.3255 13.0294 65.0919 12.7556 66.0044 12.7556C66.9352 12.7556 67.7108 13.0294 68.3313 13.5768C68.9518 14.1243 69.262 14.8361 69.262 15.7121C69.262 16.5881 68.9518 17.2998 68.3313 17.8473C67.7108 18.3948 66.9443 18.6685 66.0318 18.6685ZM83.755 30.0838C82.3863 31.5438 80.5521 32.2737 78.2527 32.2737C75.9715 32.2737 74.2012 31.6624 72.942 30.4396C71.6828 29.1987 71.0531 27.4558 71.0531 25.2111C71.0531 22.9664 71.7284 21.3148 73.0789 20.2563C74.4293 19.1795 76.1175 18.6412 78.1432 18.6412C79.0009 18.6412 79.8222 18.7233 80.6069 18.8875C81.4099 19.0518 81.9939 19.2252 82.3589 19.4077L82.9064 19.654L82.3041 22.4736C81.5559 22.2546 80.7803 22.1451 79.9773 22.1451C79.1925 22.1451 78.4717 22.4006 77.8147 22.9116C77.1759 23.4044 76.8566 24.1708 76.8566 25.2111C76.8566 27.5471 77.7599 28.715 79.5667 28.715C80.0412 28.715 80.4974 28.6603 80.9354 28.5508C81.3734 28.423 81.6928 28.2953 81.8935 28.1675L82.1946 28.0033L83.755 30.0838ZM91.7281 32.2737C89.6658 32.2737 87.9321 31.6806 86.5269 30.4944C85.1399 29.2899 84.4464 27.5288 84.4464 25.2111C84.4464 23.7511 84.8023 22.5101 85.514 21.4881C86.8098 19.5902 88.8172 18.6412 91.5364 18.6412C93.6169 18.6412 95.2047 19.0609 96.2996 19.9004C97.3946 20.7216 97.9421 21.8622 97.9421 23.3222C97.9421 24.4537 97.4859 25.3753 96.5734 26.0871C95.6791 26.7806 94.3652 27.1273 92.6314 27.1273C91.9197 27.1273 91.281 27.0726 90.7152 26.9631L90.4141 26.9083C90.5053 27.5653 90.7882 28.058 91.2627 28.3865C91.7554 28.6968 92.3394 28.8519 93.0147 28.8519C94.1279 28.8519 95.0769 28.5143 95.8616 27.8391L97.5589 29.8922C97.2669 30.2389 96.9201 30.5674 96.5186 30.8776C96.1171 31.1696 95.4784 31.4799 94.6024 31.8084C93.7264 32.1186 92.7683 32.2737 91.7281 32.2737ZM93.9454 23.0759C93.9454 22.7109 93.7994 22.4097 93.5074 22.1725C93.2337 21.9352 92.8504 21.8166 92.3577 21.8166C91.8649 21.8166 91.3996 22.0356 90.9616 22.4736C90.5418 22.9116 90.332 23.4317 90.332 24.034C90.7335 24.2165 91.2536 24.3077 91.8923 24.3077C92.5493 24.3077 93.0512 24.1982 93.3979 23.9792C93.7629 23.742 93.9454 23.4409 93.9454 23.0759ZM105.825 19.7909C105.989 19.6084 106.354 19.3712 106.92 19.0792C107.504 18.7872 108.116 18.6412 108.754 18.6412C109.411 18.6412 110.032 18.7415 110.616 18.9423C111.218 19.143 111.802 19.4715 112.368 19.9278C112.952 20.3658 113.417 21.041 113.764 21.9535C114.129 22.866 114.311 23.9518 114.311 25.2111C114.311 27.5106 113.791 29.2625 112.751 30.467C111.711 31.6715 110.378 32.2737 108.754 32.2737C107.13 32.2737 105.816 31.6168 104.812 30.3028C104.794 30.2663 104.776 30.2389 104.758 30.2206L104.292 32H100.186L99.4469 14.2338H105.688L105.469 20.2289C105.542 20.1194 105.661 19.9734 105.825 19.7909ZM107.03 22.3094C105.825 22.3094 105.223 23.4044 105.223 25.5943C105.223 26.3426 105.36 27.0178 105.634 27.6201C105.926 28.204 106.336 28.496 106.865 28.496C107.395 28.496 107.796 28.2953 108.07 27.8938C108.344 27.4923 108.508 27.1091 108.563 26.7441C108.617 26.3791 108.645 25.9958 108.645 25.5943C108.645 23.4044 108.106 22.3094 107.03 22.3094ZM121.885 20.8038C122.852 19.362 124.047 18.6412 125.471 18.6412C126.146 18.6412 126.767 18.8054 127.332 19.1339L126.675 23.6234C125.945 23.1124 125.124 22.8569 124.212 22.8569C123.336 22.8569 122.742 23.2219 122.432 23.9518C122.25 24.4081 122.131 24.8461 122.076 25.2658L121.556 32H116.629L115.808 19.0244H121.2L121.885 20.8038ZM135.303 32.2737C133.241 32.2737 131.507 31.6806 130.102 30.4944C128.715 29.2899 128.021 27.5288 128.021 25.2111C128.021 23.7511 128.377 22.5101 129.089 21.4881C130.385 19.5902 132.392 18.6412 135.111 18.6412C137.192 18.6412 138.78 19.0609 139.875 19.9004C140.97 20.7216 141.517 21.8622 141.517 23.3222C141.517 24.4537 141.061 25.3753 140.148 26.0871C139.254 26.7806 137.94 27.1273 136.206 27.1273C135.495 27.1273 134.856 27.0726 134.29 26.9631L133.989 26.9083C134.08 27.5653 134.363 28.058 134.838 28.3865C135.33 28.6968 135.914 28.8519 136.59 28.8519C137.703 28.8519 138.652 28.5143 139.437 27.8391L141.134 29.8922C140.842 30.2389 140.495 30.5674 140.094 30.8776C139.692 31.1696 139.053 31.4799 138.177 31.8084C137.301 32.1186 136.343 32.2737 135.303 32.2737ZM137.52 23.0759C137.52 22.7109 137.374 22.4097 137.082 22.1725C136.809 21.9352 136.425 21.8166 135.933 21.8166C135.44 21.8166 134.974 22.0356 134.536 22.4736C134.117 22.9116 133.907 23.4317 133.907 24.034C134.308 24.2165 134.828 24.3077 135.467 24.3077C136.124 24.3077 136.626 24.1982 136.973 23.9792C137.338 23.742 137.52 23.4409 137.52 23.0759ZM147.703 32.2737C146.298 32.2737 145.139 31.8631 144.226 31.0419C143.332 30.2206 142.885 29.0618 142.885 27.5653C142.885 26.0506 143.396 24.9556 144.418 24.2803C145.44 23.5869 146.672 23.2401 148.113 23.2401C149.555 23.2401 150.805 23.4682 151.864 23.9245C151.627 22.4097 150.668 21.6524 148.989 21.6524C148.223 21.6524 147.274 21.8075 146.142 22.1177L145.458 19.654C147.101 18.9788 148.77 18.6412 150.468 18.6412C155.359 18.6412 157.804 20.7216 157.804 24.8826C157.804 26.3061 157.64 28.277 157.311 30.7955L157.174 32H152.658L152.493 30.4944C151.252 31.6806 149.656 32.2737 147.703 32.2737ZM150.167 28.8793C150.988 28.8793 151.69 28.6512 152.274 28.1949L152.11 26.3882C151.654 26.0779 151.143 25.9228 150.577 25.9228C150.03 25.9228 149.573 26.0597 149.208 26.3334C148.862 26.6072 148.688 26.9448 148.688 27.3463C148.688 27.7478 148.825 28.1037 149.099 28.4139C149.373 28.7242 149.729 28.8793 150.167 28.8793ZM183.815 19.47C183.815 21.4067 183.57 23.1683 183.08 24.755C182.59 26.3183 181.855 27.6717 180.875 28.815C179.918 29.9583 178.716 30.8333 177.27 31.44C175.846 32.0467 174.19 32.35 172.3 32.35C170.34 32.35 168.636 32.0467 167.19 31.44C165.743 30.81 164.541 29.935 163.585 28.815C162.628 27.6717 161.916 26.3067 161.45 24.72C160.983 23.1333 160.75 21.3717 160.75 19.435C160.75 16.8683 161.17 14.6283 162.01 12.715C162.85 10.8017 164.121 9.30833 165.825 8.235C167.551 7.16167 169.721 6.625 172.335 6.625C174.831 6.625 176.931 7.16167 178.635 8.235C180.338 9.285 181.621 10.7783 182.485 12.715C183.371 14.6283 183.815 16.88 183.815 19.47ZM164.075 19.47C164.075 21.57 164.366 23.3783 164.95 24.895C165.533 26.4117 166.431 27.5783 167.645 28.395C168.881 29.2117 170.433 29.62 172.3 29.62C174.19 29.62 175.73 29.2117 176.92 28.395C178.133 27.5783 179.031 26.4117 179.615 24.895C180.198 23.3783 180.49 21.57 180.49 19.47C180.49 16.32 179.836 13.8583 178.53 12.085C177.223 10.2883 175.158 9.39 172.335 9.39C170.445 9.39 168.881 9.79833 167.645 10.615C166.431 11.4083 165.533 12.5633 164.95 14.08C164.366 15.5733 164.075 17.37 164.075 19.47Z" fill="black"/>
</g>
<path d="M176.901 18.378C177.972 18.8108 178.786 19.4798 179.342 20.3848C179.736 21.0259 179.948 21.6879 179.978 22.3708C180.008 23.0536 179.918 23.901 179.708 24.9127C179.516 25.7839 179.448 26.5399 179.504 27.1807C179.549 27.8027 179.661 28.3443 179.84 28.8055C180.027 29.2362 180.349 29.9084 180.806 30.8221C181.073 31.2558 181.119 31.669 180.945 32.0617C180.759 32.4356 180.506 32.721 180.185 32.918C179.337 33.4393 178.6 33.1908 177.974 32.1726C177.638 31.6258 177.333 30.9173 177.058 30.0473C176.783 29.1772 176.628 28.1427 176.593 26.9437C176.577 26.5378 176.609 26.1029 176.687 25.639C176.785 25.1635 176.842 24.8555 176.86 24.7149C176.964 24.209 177.016 23.7226 177.015 23.2558C177.002 22.7701 176.915 22.3953 176.753 22.1313C176.568 21.8296 176.376 21.6229 176.177 21.5111C175.997 21.3878 175.759 21.2745 175.462 21.1714C175.043 21.0391 174.583 21.0098 174.083 21.0833C173.583 21.1569 173.163 21.2979 172.824 21.5065C172.277 21.8424 171.832 22.2589 171.488 22.7559C171.151 23.2225 170.94 23.7029 170.854 24.1972C170.775 24.6611 170.834 25.0533 171.031 25.3738C171.355 25.9018 171.702 26.234 172.072 26.3706C172.43 26.4883 172.673 26.6508 172.8 26.8583C172.87 26.9714 172.922 27.1208 172.959 27.3064C173.057 27.9733 172.832 28.4748 172.286 28.8107C171.588 29.2393 170.917 29.2881 170.272 28.9571C169.627 28.6261 169.055 28.0552 168.557 27.2444C168.082 26.4713 167.876 25.5853 167.937 24.5865C167.987 23.5688 168.345 22.5441 169.009 21.5123C169.674 20.4806 170.657 19.5651 171.958 18.7658C172.712 18.3024 173.524 18.0377 174.392 17.9716C175.249 17.8867 176.085 18.0222 176.901 18.378ZM180.845 33.9927C181.411 33.6452 181.985 33.5652 182.568 33.7526C183.025 33.8617 183.403 34.1614 183.705 34.6516C183.959 35.0664 183.976 35.5369 183.754 36.063C183.52 36.5702 183.167 36.9687 182.696 37.2583C182.356 37.4668 181.969 37.5752 181.532 37.5836C180.962 37.544 180.457 37.166 180.017 36.4495C179.786 36.0724 179.753 35.6381 179.918 35.1468C180.103 34.6439 180.412 34.2592 180.845 33.9927Z" fill="#E61A1A"/>
<path d="M23.0997 0L0.510498 10.6878L4.82062 12.6645L8.09605 11.0831L13.7433 8.41118L19.3906 5.73924L20.8025 5.07125L23.0997 3.95629L25.3969 5.07125L26.8087 5.73924L32.456 8.41118L38.1033 11.0831L41.3787 12.6645L45.6888 10.6878L23.0997 0Z" fill="#03B6D2"/>
<path d="M23.9932 22.1408V50.2832L45.9442 39.9207L45.8305 11.9965L23.9932 22.1408Z" fill="#0582D2"/>
<path d="M0 40.0712V11.7412L21.951 22.1728L21.8373 50.2832L0 40.0712Z" fill="#184473"/>
<defs>
<filter id="filter0_d_66_19" x="61.8543" y="6.625" width="122.661" height="27.8276" filterUnits="userSpaceOnUse" color-interpolation-filters="sRGB">
<feFlood flood-opacity="0" result="BackgroundImageFix"/>
<feColorMatrix in="SourceAlpha" type="matrix" values="0 0 0 0 0 0 0 0 0 0 0 0 0 0 0 0 0 0 127 0" result="hardAlpha"/>
<feOffset dy="1.40171"/>
<feGaussianBlur stdDeviation="0.350429"/>
<feComposite in2="hardAlpha" operator="out"/>
<feColorMatrix type="matrix" values="0 0 0 0 0 0 0 0 0 0 0 0 0 0 0 0 0 0 0.25 0"/>
<feBlend mode="normal" in2="BackgroundImageFix" result="effect1_dropShadow_66_19"/>
<feBlend mode="normal" in="SourceGraphic" in2="effect1_dropShadow_66_19" result="shape"/>
</filter>
</defs>
</svg>
